<?xml version="1.0"?>
<svg xmlns="http://www.w3.org/2000/svg" viewBox="0 0 512 512" width="512" height="512"><g id="Fill_out_line" data-name="Fill out line"><path d="M240,376.00007v-.00014A72.006,72.006,0,0,1,312.006,304H320l-.67687-.00126A23.27977,23.27977,0,0,0,296,327.27847v.6037a24.02944,24.02944,0,0,0,24.3123,24.1248c5.23088-.06563,10.46559-.0021,15.69687-.00376A23.99983,23.99983,0,0,0,360.00071,328l.0024-81.11138a38.872,38.872,0,0,1,38.88977-38.87081l1.66625.00077a31.15125,31.15125,0,0,0,31.44042-31.07424l0-.95354A31.98992,31.98992,0,0,0,400.00954,144H434.0601a48.44377,48.44377,0,0,1,43.32943,26.77906l1.63665,3.2733a48.4438,48.4438,0,0,1,2.62837,36.984l0,0a48.44377,48.44377,0,0,1-39.94909,32.75042h-.00006a18.56573,18.56573,0,0,0-11.9598,30.30786l40.55684,48.66821A76.35553,76.35553,0,0,1,488,371.64451v.0001a76.35371,76.35371,0,0,1-76.35353,76.3555c-31.73787,0-68.38707-.00007-99.65021-.00009A71.99683,71.99683,0,0,1,240,376.00007Z" style="fill:#e98704"/><path d="M312,414.05891v-.00005a33.9411,33.9411,0,0,1,9.94112-24L336,376v11.71576A28.28425,28.28425,0,0,0,364.28424,416h7.43152A28.28425,28.28425,0,0,0,400,387.71576v0a28.28425,28.28425,0,0,0-8.28426-20l0,0A26.34313,26.34313,0,0,1,384,349.08832V338.91168a26.34313,26.34313,0,0,1,7.71572-18.6274L408,304v17.37261A54.62737,54.62737,0,0,0,424,360l0,0a54.62737,54.62737,0,0,1,16,38.62737v.00008A49.37254,49.37254,0,0,1,390.62747,448H345.94109A33.94109,33.94109,0,0,1,312,414.05891Z" style="fill:#e54042"/><path d="M336,192a40.05185,40.05185,0,0,1-21.62988,35.53A40.00226,40.00226,0,0,1,256,280a32,32,0,0,1-64,0l-16,16-30.43994-16A47.99419,47.99419,0,0,1,56,256c0-.91016.03-1.82007.08008-2.71a48.00526,48.00526,0,0,1,9.06982-92.8A32.1013,32.1013,0,0,1,64,152a31.97346,31.97346,0,0,1,32-32h.16992C96.07007,118.67993,96,117.3501,96,116a51.99258,51.99258,0,0,1,95.87012-27.8999A39.99575,39.99575,0,0,1,255.74,115.46,39.99955,39.99955,0,0,1,312,152c0,1.1001-.06006,2.18994-.14014,3.27A40.00559,40.00559,0,0,1,336,192Z" style="fill:#8fc837"/><path d="M112,448l24-144-16-40,24-40,32,64,48-96,24,40-26.09316,46.38784A203.85962,203.85962,0,0,0,208,447.99991L208,448Z" style="fill:#ae7d4d"/><path d="M104,448H64V360l6.06006,6.06006A115.89047,115.89047,0,0,1,104,448Z" style="fill:#8fc837"/><path d="M216,360v87.5l-24,.2998L176,448a115.89047,115.89047,0,0,1,33.93994-81.93994Z" style="fill:#8fc837"/><path d="M48,448v-6.05891A81.94105,81.94105,0,0,0,24,384l0,0,19.23424,8.24324A60.66151,60.66151,0,0,1,80,448v0Z" style="fill:#8fc837"/><path d="M232,448v-6.05891A81.94105,81.94105,0,0,1,256,384l0,0-19.23424,8.24324A60.66151,60.66151,0,0,0,200,448v0Z" style="fill:#8fc837"/><path d="M176,296a8.00022,8.00022,0,0,0,7.15527-4.42188l48-96-14.31054-7.15624L176,270.11133l-24.84473-49.68945-14.31054,7.15624,32,64A8.00022,8.00022,0,0,0,176,296Z"/><path d="M496,371.64453a84.51644,84.51644,0,0,0-19.55176-54.00293l-40.55664-48.668a10.56482,10.56482,0,0,1,6.80567-17.248,56.72545,56.72545,0,0,0,46.54589-38.15918,56.06775,56.06775,0,0,0-3.06152-43.0918l-1.63672-3.27344A56.13717,56.13717,0,0,0,434.06055,136H399.96094A8,8,0,0,0,400,152h.00977A24.01791,24.01791,0,0,1,424,175.99121v.95313a22.79506,22.79506,0,0,1-6.78418,16.29785,23.44841,23.44841,0,0,1-16.64062,6.77636h-.01075l-1.668-.001H398.874a46.87208,46.87208,0,0,0-46.87109,46.87109L352.001,327.999a16.0219,16.0219,0,0,1-15.99512,16.00391c-1.74024-.00293-12.25879-.04-15.79395.00488a15.75188,15.75188,0,0,1-11.42285-4.60058A16.07,16.07,0,0,1,304,327.88184v-.60352A15.279,15.279,0,0,1,319.10254,312H320a8,8,0,0,0,.01172-16l-.67285-.001c-.10449,0-.21,0-.31446.001h-7.01855A80.09709,80.09709,0,0,0,232,375.999V376a80.369,80.369,0,0,0,.56592,9.3623A68.88652,68.88652,0,0,0,224,389.94922V360a8.00066,8.00066,0,0,0-13.65723-5.65723l-5.73413,5.73438a196.03207,196.03207,0,0,1,8.4939-41.60547,39.94055,39.94055,0,0,0,48.89062-25.95313,47.99338,47.99338,0,0,0,62.68848-62.0205,47.98422,47.98422,0,0,0-4.72119-80.06348,47.98791,47.98791,0,0,0-58.32031-45.30347,48.01834,48.01834,0,0,0-67.76075-27.73877,59.96374,59.96374,0,0,0-105.7915,35.397A40.06631,40.06631,0,0,0,56,152c0,.77393.0332,1.54688.07812,2.31909a55.996,55.996,0,0,0-8.01147,104.31128,56.03279,56.03279,0,0,0,79.34106,48.2627l-18.73681,112.417a123.07625,123.07625,0,0,0-32.95508-58.90869l-6.05859-6.0586A8.00066,8.00066,0,0,0,56,360v29.94922a68.88733,68.88733,0,0,0-9.61426-5.05957l-19.23437-8.24317a8.0004,8.0004,0,0,0-8.8086,13.01075A73.409,73.409,0,0,1,39.95264,440H16v16H480V440H460.98828A84.28314,84.28314,0,0,0,496,371.64453ZM224.02661,440H208.63232a52.56955,52.56955,0,0,1,23.98-36.5752A89.51961,89.51961,0,0,0,224.02661,440ZM208,403.92773A68.54661,68.54661,0,0,0,192.46973,440h-8.15967A106.85986,106.85986,0,0,1,208,380.13965ZM64,256a39.92753,39.92753,0,0,1,10.18359-26.665L62.26172,218.665a55.87917,55.87917,0,0,0-12.314,22.71069A40.01274,40.01274,0,0,1,85.335,170.27441L90.665,155.18848A55.88282,55.88282,0,0,0,72,152a24.03827,24.03827,0,0,1,17.41162-23.07275,59.69429,59.69429,0,0,0,15.29248,28.61181L116.249,146.46094A44,44,0,1,1,192,116h16a59.62153,59.62153,0,0,0-5.48071-25.00659A31.96385,31.96385,0,0,1,246.75757,111.178a47.98413,47.98413,0,0,0-18.7605,21.6189l14.66211,6.40624a32.00379,32.00379,0,0,1,60.45117,5.32667A48.16185,48.16185,0,0,0,296,144a47.63306,47.63306,0,0,0-38.39551,19.19043l12.791,9.61133a32.00357,32.00357,0,1,1,45.95361,43.90283A47.89455,47.89455,0,0,0,280,200v16a32,32,0,0,1,0,64,31.71765,31.71765,0,0,1-19.19629-6.39551A7.99961,7.99961,0,0,0,247.999,280.001a23.95818,23.95818,0,0,1-29.33593,23.38769,195.65769,195.65769,0,0,1,10.21679-21.0791l26.09278-46.38769-13.94532-7.84376-26.09277,46.3877a211.97925,211.97925,0,0,0-27.18848,106.37207A122.7469,122.7469,0,0,0,168.26147,440H121.44409L143.8916,305.31543a8.00226,8.00226,0,0,0-.46387-4.28613l-16-40-14.85546,5.9414,9.82373,24.55909A40.017,40.017,0,0,1,64,256ZM95.68994,440H87.53027A68.54661,68.54661,0,0,0,72,403.92773V380.13965A106.85986,106.85986,0,0,1,95.68994,440ZM47.3877,403.4248A52.56955,52.56955,0,0,1,71.36768,440H55.97339A89.51961,89.51961,0,0,0,47.3877,403.4248ZM240.04736,440a73.912,73.912,0,0,1,3.91065-21.98682A80.63172,80.63172,0,0,0,264.05371,440Zm12.76758-39.67432a74.72363,74.72363,0,0,1,8.84229-10.66845,8.0004,8.0004,0,0,0-8.8086-13.01075l-4.78027,2.04883c-.03735-.895-.06836-1.791-.06836-2.69482a64.11292,64.11292,0,0,1,42.14648-60.15576A31.2625,31.2625,0,0,0,288,327.27832v.60352a32.02871,32.02871,0,0,0,32.41211,32.124c3.40625-.042,13.81641.00781,15.59863-.00293A32.04025,32.04025,0,0,0,368.001,328l.00195-81.11133a30.873,30.873,0,0,1,30.87012-30.87109h.01465l1.668.001h.01856a39.34922,39.34922,0,0,0,27.9082-11.416A38.6829,38.6829,0,0,0,440,176.94434v-.95313A39.78517,39.78517,0,0,0,431.98535,152h2.0752a40.22239,40.22239,0,0,1,36.17383,22.35742l1.63671,3.27344a40.17234,40.17234,0,0,1,2.19336,30.875,40.64448,40.64448,0,0,1-33.35156,27.34277,26.56509,26.56509,0,0,0-17.11328,43.36719l40.55762,48.668a68.34276,68.34276,0,0,1-30.28907,108.38769A57.11563,57.11563,0,0,0,448,398.627a62.21991,62.21991,0,0,0-18.34277-44.28418A46.3218,46.3218,0,0,1,416,321.37305V304a8.00066,8.00066,0,0,0-13.65723-5.65723L386.05859,314.627A34.12164,34.12164,0,0,0,376,338.91211v10.17578a34.12164,34.12164,0,0,0,10.05859,24.28516A20.28374,20.28374,0,0,1,371.71582,408h-7.43164A20.30736,20.30736,0,0,1,344,387.71582V376a8.00066,8.00066,0,0,0-13.65723-5.65723l-14.05859,14.0586A41.88107,41.88107,0,0,0,313.02148,440h-1.02539A64.08832,64.08832,0,0,1,252.81494,400.32568ZM345.94141,440a25.9406,25.9406,0,0,1-18.34278-44.28418l1.06641-1.06641A36.34464,36.34464,0,0,0,364.28418,424h7.43164a36.2848,36.2848,0,0,0,25.65723-61.94141A18.22013,18.22013,0,0,1,392,349.08789V338.91211a18.22013,18.22013,0,0,1,5.373-12.9707l2.65527-2.65625a62.19533,62.19533,0,0,0,18.31445,42.37207A46.32238,46.32238,0,0,1,432,398.62793,41.4191,41.4191,0,0,1,390.62793,440Z"/></g></svg>
